<mxfile host="Electron" agent="Mozilla/5.0 (Windows NT 10.0; Win64; x64) AppleWebKit/537.36 (KHTML, like Gecko) draw.io/24.7.8 Chrome/128.0.6613.36 Electron/32.0.1 Safari/537.36" version="24.7.8">
  <diagram name="Página-1" id="iGrsZ4pZnJBZoIMJ064q">
    <mxGraphModel dx="1257" dy="760" grid="1" gridSize="10" guides="1" tooltips="1" connect="1" arrows="1" fold="1" page="1" pageScale="1" pageWidth="827" pageHeight="1169" math="0" shadow="0">
      <root>
        <mxCell id="0" />
        <mxCell id="1" parent="0" />
        <mxCell id="r1WN9vxvSuOueBD1aWi8-1" value="Practica 2 -- Ejercicio 3&lt;div&gt;Modelado Conceptual&lt;/div&gt;" style="text;html=1;align=left;verticalAlign=middle;resizable=0;points=[];autosize=1;strokeColor=none;fillColor=none;" vertex="1" parent="1">
          <mxGeometry x="20" y="20" width="150" height="40" as="geometry" />
        </mxCell>
        <mxCell id="r1WN9vxvSuOueBD1aWi8-2" value="Persona" style="rounded=0;whiteSpace=wrap;html=1;" vertex="1" parent="1">
          <mxGeometry x="246" y="215" width="120" height="60" as="geometry" />
        </mxCell>
        <mxCell id="r1WN9vxvSuOueBD1aWi8-5" style="edgeStyle=orthogonalEdgeStyle;rounded=0;orthogonalLoop=1;jettySize=auto;html=1;entryX=0.5;entryY=1;entryDx=0;entryDy=0;" edge="1" parent="1" source="r1WN9vxvSuOueBD1aWi8-3" target="r1WN9vxvSuOueBD1aWi8-2">
          <mxGeometry relative="1" as="geometry" />
        </mxCell>
        <mxCell id="r1WN9vxvSuOueBD1aWi8-25" value="" style="edgeStyle=orthogonalEdgeStyle;rounded=0;orthogonalLoop=1;jettySize=auto;html=1;" edge="1" parent="1" source="r1WN9vxvSuOueBD1aWi8-3" target="r1WN9vxvSuOueBD1aWi8-24">
          <mxGeometry relative="1" as="geometry" />
        </mxCell>
        <mxCell id="r1WN9vxvSuOueBD1aWi8-45" style="edgeStyle=orthogonalEdgeStyle;rounded=0;orthogonalLoop=1;jettySize=auto;html=1;" edge="1" parent="1" source="r1WN9vxvSuOueBD1aWi8-3" target="r1WN9vxvSuOueBD1aWi8-42">
          <mxGeometry relative="1" as="geometry" />
        </mxCell>
        <mxCell id="r1WN9vxvSuOueBD1aWi8-56" style="edgeStyle=orthogonalEdgeStyle;rounded=0;orthogonalLoop=1;jettySize=auto;html=1;" edge="1" parent="1">
          <mxGeometry relative="1" as="geometry">
            <mxPoint x="310" y="445" as="targetPoint" />
            <mxPoint x="90" y="405" as="sourcePoint" />
            <Array as="points">
              <mxPoint x="150" y="405" />
              <mxPoint x="150" y="428" />
              <mxPoint x="211" y="428" />
              <mxPoint x="211" y="435" />
              <mxPoint x="210" y="435" />
              <mxPoint x="210" y="445" />
            </Array>
          </mxGeometry>
        </mxCell>
        <mxCell id="r1WN9vxvSuOueBD1aWi8-3" value="Paciente" style="whiteSpace=wrap;html=1;" vertex="1" parent="1">
          <mxGeometry x="30" y="315" width="120" height="60" as="geometry" />
        </mxCell>
        <mxCell id="r1WN9vxvSuOueBD1aWi8-6" style="edgeStyle=orthogonalEdgeStyle;rounded=0;orthogonalLoop=1;jettySize=auto;html=1;entryX=0.5;entryY=1;entryDx=0;entryDy=0;" edge="1" parent="1" source="r1WN9vxvSuOueBD1aWi8-4" target="r1WN9vxvSuOueBD1aWi8-2">
          <mxGeometry relative="1" as="geometry" />
        </mxCell>
        <mxCell id="r1WN9vxvSuOueBD1aWi8-28" value="" style="edgeStyle=orthogonalEdgeStyle;rounded=0;orthogonalLoop=1;jettySize=auto;html=1;" edge="1" parent="1" source="r1WN9vxvSuOueBD1aWi8-4" target="r1WN9vxvSuOueBD1aWi8-27">
          <mxGeometry relative="1" as="geometry" />
        </mxCell>
        <mxCell id="r1WN9vxvSuOueBD1aWi8-32" value="" style="edgeStyle=orthogonalEdgeStyle;rounded=0;orthogonalLoop=1;jettySize=auto;html=1;" edge="1" parent="1" source="r1WN9vxvSuOueBD1aWi8-4" target="r1WN9vxvSuOueBD1aWi8-31">
          <mxGeometry relative="1" as="geometry" />
        </mxCell>
        <mxCell id="r1WN9vxvSuOueBD1aWi8-47" value="" style="edgeStyle=orthogonalEdgeStyle;rounded=0;orthogonalLoop=1;jettySize=auto;html=1;" edge="1" parent="1" source="r1WN9vxvSuOueBD1aWi8-4" target="r1WN9vxvSuOueBD1aWi8-46">
          <mxGeometry relative="1" as="geometry" />
        </mxCell>
        <mxCell id="r1WN9vxvSuOueBD1aWi8-4" value="Médico" style="whiteSpace=wrap;html=1;" vertex="1" parent="1">
          <mxGeometry x="510" y="315" width="120" height="60" as="geometry" />
        </mxCell>
        <mxCell id="r1WN9vxvSuOueBD1aWi8-7" value="    DNI" style="shape=waypoint;sketch=0;size=6;pointerEvents=1;points=[];fillColor=none;resizable=0;rotatable=0;perimeter=centerPerimeter;snapToPoint=1;align=left;" vertex="1" parent="1">
          <mxGeometry x="366" y="205" width="20" height="20" as="geometry" />
        </mxCell>
        <mxCell id="r1WN9vxvSuOueBD1aWi8-19" value="" style="edgeStyle=orthogonalEdgeStyle;rounded=0;orthogonalLoop=1;jettySize=auto;html=1;" edge="1" parent="1" source="r1WN9vxvSuOueBD1aWi8-18" target="r1WN9vxvSuOueBD1aWi8-2">
          <mxGeometry relative="1" as="geometry" />
        </mxCell>
        <mxCell id="r1WN9vxvSuOueBD1aWi8-18" value="Direccion" style="ellipse;whiteSpace=wrap;html=1;" vertex="1" parent="1">
          <mxGeometry x="266" y="155" width="80" height="40" as="geometry" />
        </mxCell>
        <mxCell id="r1WN9vxvSuOueBD1aWi8-20" value="&lt;font style=&quot;font-size: 11px;&quot;&gt;o Calle&lt;/font&gt;&lt;div style=&quot;font-size: 11px;&quot;&gt;&lt;font style=&quot;font-size: 11px;&quot;&gt;o Piso&amp;nbsp;&lt;/font&gt;&lt;/div&gt;&lt;div style=&quot;font-size: 11px;&quot;&gt;&lt;font style=&quot;font-size: 11px;&quot;&gt;o Depto&lt;/font&gt;&lt;/div&gt;&lt;div style=&quot;font-size: 11px;&quot;&gt;&lt;font style=&quot;font-size: 11px;&quot;&gt;o Numero&lt;/font&gt;&lt;/div&gt;" style="text;html=1;align=left;verticalAlign=middle;resizable=0;points=[];autosize=1;strokeColor=none;fillColor=none;" vertex="1" parent="1">
          <mxGeometry x="346" y="140" width="70" height="70" as="geometry" />
        </mxCell>
        <mxCell id="r1WN9vxvSuOueBD1aWi8-21" value="&lt;p style=&quot;line-height: 100%; font-size: 10px;&quot;&gt;&lt;font style=&quot;font-size: 10px;&quot;&gt;o Numero de Pasaporte (0,1)&lt;/font&gt;&lt;/p&gt;&lt;p style=&quot;line-height: 0%; font-size: 10px;&quot;&gt;&lt;span style=&quot;background-color: initial;&quot;&gt;&lt;font style=&quot;font-size: 10px;&quot;&gt;o Nombre&lt;/font&gt;&lt;/span&gt;&lt;/p&gt;&lt;p style=&quot;line-height: 100%; font-size: 10px;&quot;&gt;&lt;span style=&quot;background-color: initial;&quot;&gt;&lt;font style=&quot;font-size: 10px;&quot;&gt;o Apellido&lt;/font&gt;&lt;/span&gt;&lt;/p&gt;&lt;div style=&quot;line-height: 100%; font-size: 10px;&quot;&gt;&lt;font style=&quot;font-size: 10px;&quot;&gt;o Fecha de Nacimiento&lt;/font&gt;&lt;/div&gt;" style="text;html=1;align=left;verticalAlign=middle;resizable=0;points=[];autosize=1;strokeColor=none;fillColor=none;rotation=0;" vertex="1" parent="1">
          <mxGeometry x="366" y="210" width="150" height="80" as="geometry" />
        </mxCell>
        <mxCell id="r1WN9vxvSuOueBD1aWi8-62" value="" style="edgeStyle=orthogonalEdgeStyle;rounded=0;orthogonalLoop=1;jettySize=auto;html=1;" edge="1" parent="1" source="r1WN9vxvSuOueBD1aWi8-22" target="r1WN9vxvSuOueBD1aWi8-61">
          <mxGeometry relative="1" as="geometry" />
        </mxCell>
        <mxCell id="r1WN9vxvSuOueBD1aWi8-22" value="EPISODIO" style="whiteSpace=wrap;html=1;" vertex="1" parent="1">
          <mxGeometry x="266" y="455" width="120" height="60" as="geometry" />
        </mxCell>
        <mxCell id="r1WN9vxvSuOueBD1aWi8-23" value="(T,S)" style="text;html=1;align=center;verticalAlign=middle;resizable=0;points=[];autosize=1;strokeColor=none;fillColor=none;" vertex="1" parent="1">
          <mxGeometry x="305" y="288" width="50" height="30" as="geometry" />
        </mxCell>
        <mxCell id="r1WN9vxvSuOueBD1aWi8-26" style="edgeStyle=orthogonalEdgeStyle;rounded=0;orthogonalLoop=1;jettySize=auto;html=1;entryX=0;entryY=0.5;entryDx=0;entryDy=0;" edge="1" parent="1" source="r1WN9vxvSuOueBD1aWi8-24" target="r1WN9vxvSuOueBD1aWi8-22">
          <mxGeometry relative="1" as="geometry" />
        </mxCell>
        <mxCell id="r1WN9vxvSuOueBD1aWi8-24" value="SUFRE" style="rhombus;whiteSpace=wrap;html=1;" vertex="1" parent="1">
          <mxGeometry x="50" y="445" width="80" height="80" as="geometry" />
        </mxCell>
        <mxCell id="r1WN9vxvSuOueBD1aWi8-29" style="edgeStyle=orthogonalEdgeStyle;rounded=0;orthogonalLoop=1;jettySize=auto;html=1;" edge="1" parent="1" source="r1WN9vxvSuOueBD1aWi8-27" target="r1WN9vxvSuOueBD1aWi8-22">
          <mxGeometry relative="1" as="geometry" />
        </mxCell>
        <mxCell id="r1WN9vxvSuOueBD1aWi8-27" value="LLEVA A&lt;br&gt;CABO" style="rhombus;whiteSpace=wrap;html=1;" vertex="1" parent="1">
          <mxGeometry x="530" y="445" width="80" height="80" as="geometry" />
        </mxCell>
        <mxCell id="r1WN9vxvSuOueBD1aWi8-30" value="SALA" style="whiteSpace=wrap;html=1;" vertex="1" parent="1">
          <mxGeometry x="690" y="440" width="120" height="60" as="geometry" />
        </mxCell>
        <mxCell id="r1WN9vxvSuOueBD1aWi8-35" value="" style="edgeStyle=orthogonalEdgeStyle;rounded=0;orthogonalLoop=1;jettySize=auto;html=1;" edge="1" parent="1" source="r1WN9vxvSuOueBD1aWi8-31" target="r1WN9vxvSuOueBD1aWi8-30">
          <mxGeometry relative="1" as="geometry" />
        </mxCell>
        <mxCell id="r1WN9vxvSuOueBD1aWi8-79" style="edgeStyle=orthogonalEdgeStyle;rounded=0;orthogonalLoop=1;jettySize=auto;html=1;exitX=0.452;exitY=0.03;exitDx=0;exitDy=0;exitPerimeter=0;" edge="1" parent="1" source="r1WN9vxvSuOueBD1aWi8-31" target="r1WN9vxvSuOueBD1aWi8-77">
          <mxGeometry relative="1" as="geometry" />
        </mxCell>
        <mxCell id="r1WN9vxvSuOueBD1aWi8-31" value="ATIENDE" style="rhombus;whiteSpace=wrap;html=1;" vertex="1" parent="1">
          <mxGeometry x="710" y="305" width="80" height="80" as="geometry" />
        </mxCell>
        <mxCell id="r1WN9vxvSuOueBD1aWi8-37" value="ESPECIALIDAD" style="whiteSpace=wrap;html=1;" vertex="1" parent="1">
          <mxGeometry x="510" y="80" width="120" height="60" as="geometry" />
        </mxCell>
        <mxCell id="r1WN9vxvSuOueBD1aWi8-38" value="ENFERMEDAD" style="whiteSpace=wrap;html=1;" vertex="1" parent="1">
          <mxGeometry x="30" y="135" width="120" height="60" as="geometry" />
        </mxCell>
        <mxCell id="r1WN9vxvSuOueBD1aWi8-44" style="edgeStyle=orthogonalEdgeStyle;rounded=0;orthogonalLoop=1;jettySize=auto;html=1;" edge="1" parent="1" source="r1WN9vxvSuOueBD1aWi8-42" target="r1WN9vxvSuOueBD1aWi8-38">
          <mxGeometry relative="1" as="geometry" />
        </mxCell>
        <mxCell id="r1WN9vxvSuOueBD1aWi8-42" value="PADECE" style="rhombus;whiteSpace=wrap;html=1;" vertex="1" parent="1">
          <mxGeometry x="50" y="215" width="80" height="80" as="geometry" />
        </mxCell>
        <mxCell id="r1WN9vxvSuOueBD1aWi8-48" value="" style="edgeStyle=orthogonalEdgeStyle;rounded=0;orthogonalLoop=1;jettySize=auto;html=1;" edge="1" parent="1" source="r1WN9vxvSuOueBD1aWi8-46" target="r1WN9vxvSuOueBD1aWi8-37">
          <mxGeometry relative="1" as="geometry" />
        </mxCell>
        <mxCell id="r1WN9vxvSuOueBD1aWi8-46" value="POSEE" style="rhombus;whiteSpace=wrap;html=1;" vertex="1" parent="1">
          <mxGeometry x="530" y="190" width="80" height="80" as="geometry" />
        </mxCell>
        <mxCell id="r1WN9vxvSuOueBD1aWi8-49" value="     NOMBRE" style="shape=waypoint;sketch=0;size=6;pointerEvents=1;points=[];fillColor=none;resizable=0;rotatable=0;perimeter=centerPerimeter;snapToPoint=1;align=left;" vertex="1" parent="1">
          <mxGeometry x="150" y="130" width="20" height="20" as="geometry" />
        </mxCell>
        <mxCell id="r1WN9vxvSuOueBD1aWi8-50" value="o Descripción" style="shape=table;startSize=0;container=1;collapsible=0;childLayout=tableLayout;fontSize=11;fillColor=none;strokeColor=none;" vertex="1" parent="1">
          <mxGeometry x="160" y="130" width="60" height="60" as="geometry" />
        </mxCell>
        <mxCell id="r1WN9vxvSuOueBD1aWi8-51" value="o N° de dosis" style="text;html=1;align=center;verticalAlign=middle;resizable=0;points=[];autosize=1;strokeColor=none;fillColor=none;" vertex="1" parent="1">
          <mxGeometry x="140" y="355" width="100" height="30" as="geometry" />
        </mxCell>
        <mxCell id="r1WN9vxvSuOueBD1aWi8-53" value="     N° UNICO de EPISODIO" style="shape=waypoint;sketch=0;size=6;pointerEvents=1;points=[];fillColor=none;resizable=0;rotatable=0;perimeter=centerPerimeter;snapToPoint=1;align=left;" vertex="1" parent="1">
          <mxGeometry x="266" y="410" width="20" height="20" as="geometry" />
        </mxCell>
        <mxCell id="r1WN9vxvSuOueBD1aWi8-54" style="edgeStyle=orthogonalEdgeStyle;rounded=0;orthogonalLoop=1;jettySize=auto;html=1;entryX=0.412;entryY=0.858;entryDx=0;entryDy=0;entryPerimeter=0;exitX=0.135;exitY=-0.033;exitDx=0;exitDy=0;exitPerimeter=0;" edge="1" parent="1" source="r1WN9vxvSuOueBD1aWi8-22" target="r1WN9vxvSuOueBD1aWi8-53">
          <mxGeometry relative="1" as="geometry" />
        </mxCell>
        <mxCell id="r1WN9vxvSuOueBD1aWi8-57" value="" style="shape=waypoint;sketch=0;size=6;pointerEvents=1;points=[];fillColor=none;resizable=0;rotatable=0;perimeter=centerPerimeter;snapToPoint=1;" vertex="1" parent="1">
          <mxGeometry x="305" y="435" width="20" height="20" as="geometry" />
        </mxCell>
        <mxCell id="r1WN9vxvSuOueBD1aWi8-64" value="" style="edgeStyle=orthogonalEdgeStyle;rounded=0;orthogonalLoop=1;jettySize=auto;html=1;" edge="1" parent="1" source="r1WN9vxvSuOueBD1aWi8-61" target="r1WN9vxvSuOueBD1aWi8-63">
          <mxGeometry relative="1" as="geometry" />
        </mxCell>
        <mxCell id="r1WN9vxvSuOueBD1aWi8-61" value="PROVOCA" style="rhombus;whiteSpace=wrap;html=1;" vertex="1" parent="1">
          <mxGeometry x="286" y="545" width="80" height="80" as="geometry" />
        </mxCell>
        <mxCell id="r1WN9vxvSuOueBD1aWi8-63" value="SINTOMA" style="whiteSpace=wrap;html=1;" vertex="1" parent="1">
          <mxGeometry x="266" y="660" width="120" height="60" as="geometry" />
        </mxCell>
        <mxCell id="r1WN9vxvSuOueBD1aWi8-65" value="     CODIGO UNICO" style="shape=waypoint;sketch=0;size=6;pointerEvents=1;points=[];fillColor=none;resizable=0;rotatable=0;perimeter=centerPerimeter;snapToPoint=1;align=left;" vertex="1" parent="1">
          <mxGeometry x="390" y="660" width="20" height="20" as="geometry" />
        </mxCell>
        <mxCell id="r1WN9vxvSuOueBD1aWi8-66" value="o Descripción" style="text;html=1;align=center;verticalAlign=middle;resizable=0;points=[];autosize=1;strokeColor=none;fillColor=none;" vertex="1" parent="1">
          <mxGeometry x="380" y="675" width="100" height="30" as="geometry" />
        </mxCell>
        <mxCell id="r1WN9vxvSuOueBD1aWi8-67" value="     Codigo de Matricula" style="shape=waypoint;sketch=0;size=6;pointerEvents=1;points=[];fillColor=none;resizable=0;rotatable=0;perimeter=centerPerimeter;snapToPoint=1;align=left;" vertex="1" parent="1">
          <mxGeometry x="600" y="385" width="20" height="20" as="geometry" />
        </mxCell>
        <mxCell id="r1WN9vxvSuOueBD1aWi8-68" style="edgeStyle=orthogonalEdgeStyle;rounded=0;orthogonalLoop=1;jettySize=auto;html=1;entryX=0.279;entryY=0.35;entryDx=0;entryDy=0;entryPerimeter=0;" edge="1" parent="1" source="r1WN9vxvSuOueBD1aWi8-4" target="r1WN9vxvSuOueBD1aWi8-67">
          <mxGeometry relative="1" as="geometry">
            <Array as="points">
              <mxPoint x="600" y="395" />
            </Array>
          </mxGeometry>
        </mxCell>
        <mxCell id="r1WN9vxvSuOueBD1aWi8-69" value="     Numero de Sala" style="shape=waypoint;sketch=0;size=6;pointerEvents=1;points=[];fillColor=none;resizable=0;rotatable=0;perimeter=centerPerimeter;snapToPoint=1;align=left;" vertex="1" parent="1">
          <mxGeometry x="680" y="505" width="20" height="20" as="geometry" />
        </mxCell>
        <mxCell id="r1WN9vxvSuOueBD1aWi8-71" value="Piso o&lt;div&gt;Capacidad o&lt;/div&gt;" style="text;html=1;align=right;verticalAlign=middle;resizable=0;points=[];autosize=1;strokeColor=none;fillColor=none;" vertex="1" parent="1">
          <mxGeometry x="600" y="435" width="90" height="40" as="geometry" />
        </mxCell>
        <mxCell id="r1WN9vxvSuOueBD1aWi8-72" value="     Nombre" style="shape=waypoint;sketch=0;size=6;pointerEvents=1;points=[];fillColor=none;resizable=0;rotatable=0;perimeter=centerPerimeter;snapToPoint=1;align=left;" vertex="1" parent="1">
          <mxGeometry x="630" y="70" width="20" height="20" as="geometry" />
        </mxCell>
        <mxCell id="r1WN9vxvSuOueBD1aWi8-73" value="o Descripción" style="text;html=1;align=center;verticalAlign=middle;resizable=0;points=[];autosize=1;strokeColor=none;fillColor=none;" vertex="1" parent="1">
          <mxGeometry x="620" y="80" width="100" height="30" as="geometry" />
        </mxCell>
        <mxCell id="r1WN9vxvSuOueBD1aWi8-74" value="Fecha&lt;br&gt;Hasta (0,1)" style="text;html=1;align=left;verticalAlign=middle;resizable=0;points=[];autosize=1;strokeColor=none;fillColor=none;" vertex="1" parent="1">
          <mxGeometry x="760" y="235" width="80" height="40" as="geometry" />
        </mxCell>
        <mxCell id="r1WN9vxvSuOueBD1aWi8-75" value="Fecha&amp;nbsp;&lt;div&gt;Desde&lt;/div&gt;" style="text;html=1;align=left;verticalAlign=middle;resizable=0;points=[];autosize=1;strokeColor=none;fillColor=none;" vertex="1" parent="1">
          <mxGeometry x="670" y="235" width="60" height="40" as="geometry" />
        </mxCell>
        <mxCell id="r1WN9vxvSuOueBD1aWi8-76" value="" style="shape=waypoint;sketch=0;size=6;pointerEvents=1;points=[];fillColor=none;resizable=0;rotatable=0;perimeter=centerPerimeter;snapToPoint=1;" vertex="1" parent="1">
          <mxGeometry x="770" y="270" width="20" height="20" as="geometry" />
        </mxCell>
        <mxCell id="r1WN9vxvSuOueBD1aWi8-77" value="" style="shape=waypoint;sketch=0;size=6;pointerEvents=1;points=[];fillColor=none;resizable=0;rotatable=0;perimeter=centerPerimeter;snapToPoint=1;" vertex="1" parent="1">
          <mxGeometry x="680" y="270" width="20" height="20" as="geometry" />
        </mxCell>
        <mxCell id="r1WN9vxvSuOueBD1aWi8-78" style="edgeStyle=orthogonalEdgeStyle;rounded=0;orthogonalLoop=1;jettySize=auto;html=1;entryX=0.693;entryY=0.957;entryDx=0;entryDy=0;entryPerimeter=0;" edge="1" parent="1" source="r1WN9vxvSuOueBD1aWi8-31" target="r1WN9vxvSuOueBD1aWi8-76">
          <mxGeometry relative="1" as="geometry" />
        </mxCell>
        <mxCell id="r1WN9vxvSuOueBD1aWi8-80" value="(0,N)" style="text;html=1;align=center;verticalAlign=middle;resizable=0;points=[];autosize=1;strokeColor=none;fillColor=none;" vertex="1" parent="1">
          <mxGeometry x="115" y="288" width="50" height="30" as="geometry" />
        </mxCell>
        <mxCell id="r1WN9vxvSuOueBD1aWi8-81" value="(0,N)" style="text;html=1;align=center;verticalAlign=middle;resizable=0;points=[];autosize=1;strokeColor=none;fillColor=none;" vertex="1" parent="1">
          <mxGeometry x="95" y="188" width="50" height="30" as="geometry" />
        </mxCell>
        <mxCell id="r1WN9vxvSuOueBD1aWi8-82" value="(0,N)" style="text;html=1;align=center;verticalAlign=middle;resizable=0;points=[];autosize=1;strokeColor=none;fillColor=none;" vertex="1" parent="1">
          <mxGeometry x="25" y="378" width="50" height="30" as="geometry" />
        </mxCell>
        <mxCell id="r1WN9vxvSuOueBD1aWi8-83" value="(1,1)" style="text;html=1;align=center;verticalAlign=middle;resizable=0;points=[];autosize=1;strokeColor=none;fillColor=none;" vertex="1" parent="1">
          <mxGeometry x="210" y="495" width="50" height="30" as="geometry" />
        </mxCell>
        <mxCell id="r1WN9vxvSuOueBD1aWi8-84" value="(0,N)" style="text;html=1;align=center;verticalAlign=middle;resizable=0;points=[];autosize=1;strokeColor=none;fillColor=none;" vertex="1" parent="1">
          <mxGeometry x="345" y="518" width="50" height="30" as="geometry" />
        </mxCell>
        <mxCell id="r1WN9vxvSuOueBD1aWi8-85" value="(1,N)" style="text;html=1;align=center;verticalAlign=middle;resizable=0;points=[];autosize=1;strokeColor=none;fillColor=none;" vertex="1" parent="1">
          <mxGeometry x="325" y="628" width="50" height="30" as="geometry" />
        </mxCell>
        <mxCell id="r1WN9vxvSuOueBD1aWi8-86" value="(1,N)" style="text;html=1;align=center;verticalAlign=middle;resizable=0;points=[];autosize=1;strokeColor=none;fillColor=none;" vertex="1" parent="1">
          <mxGeometry x="585" y="278" width="50" height="30" as="geometry" />
        </mxCell>
        <mxCell id="r1WN9vxvSuOueBD1aWi8-87" value="(1,N)" style="text;html=1;align=center;verticalAlign=middle;resizable=0;points=[];autosize=1;strokeColor=none;fillColor=none;" vertex="1" parent="1">
          <mxGeometry x="585" y="148" width="50" height="30" as="geometry" />
        </mxCell>
        <mxCell id="r1WN9vxvSuOueBD1aWi8-88" value="(1,N)" style="text;html=1;align=center;verticalAlign=middle;resizable=0;points=[];autosize=1;strokeColor=none;fillColor=none;" vertex="1" parent="1">
          <mxGeometry x="625" y="318" width="50" height="30" as="geometry" />
        </mxCell>
        <mxCell id="r1WN9vxvSuOueBD1aWi8-89" value="(1,N)" style="text;html=1;align=center;verticalAlign=middle;resizable=0;points=[];autosize=1;strokeColor=none;fillColor=none;" vertex="1" parent="1">
          <mxGeometry x="755" y="398" width="50" height="30" as="geometry" />
        </mxCell>
        <mxCell id="r1WN9vxvSuOueBD1aWi8-90" value="(0,N)" style="text;html=1;align=center;verticalAlign=middle;resizable=0;points=[];autosize=1;strokeColor=none;fillColor=none;" vertex="1" parent="1">
          <mxGeometry x="505" y="378" width="50" height="30" as="geometry" />
        </mxCell>
        <mxCell id="r1WN9vxvSuOueBD1aWi8-91" value="(1,N)" style="text;html=1;align=center;verticalAlign=middle;resizable=0;points=[];autosize=1;strokeColor=none;fillColor=none;" vertex="1" parent="1">
          <mxGeometry x="395" y="458" width="50" height="30" as="geometry" />
        </mxCell>
      </root>
    </mxGraphModel>
  </diagram>
</mxfile>
